<svg xmlns="http://www.w3.org/2000/svg" aria-hidden="true" style="position: absolute; width: 0; height: 0; overflow: hidden;">
  <defs>
    <symbol id="strategy" viewBox="0 0 32 32">
      <path fill="#2e2f42" d="m30.773 22.098-8.443-8.505.937-4.615c.242.094.499.144.758.146h.006c1.192.014 2.17-.941 2.184-2.133s-.941-2.17-2.133-2.184c-1.192-.014-2.17.941-2.184 2.133-.003.255.039.509.125.749l-4.96.605L8.972.161C8.873.06 8.737.002 8.595.001c-.14.001-.274.056-.373.155L6.709 1.66c-.208.208-.208.546 0 .754l.814.826C4.37 9.038 5.394 16.218 10.042 20.903c.043.041.092.074.146.098-.034.18-.051.364-.052.547v6.187h-6.4c-1.472.002-2.665 1.195-2.667 2.667v1.067c0 .295.239.533.533.533h24.533c.295 0 .533-.239.533-.533v-1.067c-.002-1.472-1.195-2.665-2.667-2.667h-6.4v-2.742c1.003.21 2.024.317 3.049.32 2.458-.003 4.877-.615 7.04-1.783l.818.823c.099.101.235.159.377.16.14-.001.274-.056.373-.155l1.513-1.504c.208-.208.208-.546 0-.754zM23.28 6.233c.418-.415 1.093-.414 1.509.004s.414 1.093-.004 1.508c-.2.199-.47.31-.752.31h-.003c-.589-.003-1.064-.483-1.061-1.072.002-.282.115-.552.314-.751h-.002zm-1.256 3.505-.598 2.946-1.175-1.182 1.774-1.763zm-.605-.902-1.92 1.909-1.485-1.493 3.405-.415zM24.004 28.8c.884 0 1.6.716 1.6 1.6v.533H2.137V30.4c0-.884.716-1.6 1.6-1.6h20.267zm-7.467-2.133v1.067h-5.333v-1.067h5.333zM11.204 25.6v-4.053c0-1.294 1.196-2.347 2.667-2.347s2.667 1.053 2.667 2.347V25.6h-5.333zm6.4-1.696v-2.357c0-1.882-1.675-3.413-3.733-3.413-1.331-.02-2.576.657-3.281 1.786C6.532 15.646 5.619 9.275 8.311 4.033l18.602 18.708c-2.872 1.461-6.165 1.873-9.309 1.163zm11.289-.684L7.836 2.039l.755-.752 7.935 7.98c.004 0 .006.007.01.01l13.115 13.191-.757.752z" style="fill: var(--color1, #2e2f42)"/>
      <path fill="#4d5ae5" d="M13.876 20.267h-.005c-.884-.001-1.601.714-1.602 1.598s.714 1.601 1.598 1.602h.005c.884.001 1.601-.714 1.602-1.598s-.714-1.601-1.598-1.602zm.373 1.978c-.1.1-.236.156-.378.155-.295-.002-.532-.242-.531-.536.001-.141.057-.276.157-.375s.233-.154.373-.155c.295.002.532.242.531.536-.001.141-.057.276-.157.375h.005z" style="fill: var(--color2, #4d5ae5)"/>
    </symbol>
    <symbol id="punctuality" viewBox="0 0 32 32">
      <path fill="#2e2f42" d="M31.297 15.301C31.295 6.849 24.442-.002 15.989 0S.686 6.855.688 15.308c.001 6.658 4.307 12.551 10.649 14.576.061.019.124.029.187.029.121 0 .239-.032.342-.094.135-.08.236-.207.283-.356l3.865-12.25c1.057-.005 1.909-.866 1.903-1.923s-.866-1.909-1.923-1.903c-.284.001-.565.067-.82.191l-5.106-5.107c-.253-.245-.657-.238-.902.016-.239.247-.239.639 0 .886l5.103 5.109c-.392.799-.168 1.764.536 2.309l-3.683 11.673C3.844 25.783.118 17.71 2.799 10.432S13.553-.572 20.831 2.109c7.278 2.681 11.004 10.754 8.323 18.032-1.31 3.556-4.001 6.431-7.462 7.973l-.398-1.874c-.073-.345-.411-.565-.756-.492-.109.023-.209.074-.293.148l-3.837 3.426c-.263.234-.287.637-.052.9.076.085.174.149.283.184l4.899 1.564c.335.108.694-.077.802-.412.034-.106.04-.219.017-.328l-.391-1.839c5.664-2.388 9.342-7.942 9.329-14.089zm-15.305-.637c.352 0 .638.286.638.638s-.286.638-.638.638c-.352 0-.638-.285-.638-.638s.285-.638.638-.638zm2.101 14.864 2.184-1.948.603 2.84-2.787-.892z" style="fill: var(--color1, #2e2f42)"/>
      <path fill="#4d5ae5" d="M15.354 3.185V4.46c0 .352.285.638.638.638s.638-.285.638-.638V3.185c0-.352-.286-.638-.638-.638s-.638.286-.638.638zM3.876 14.664c-.352 0-.638.286-.638.638s.285.638.638.638h1.275c.352 0 .638-.285.638-.638s-.285-.638-.638-.638H3.876zM28.108 15.939c.352 0 .638-.285.638-.638s-.285-.638-.638-.638h-1.275c-.352 0-.638.286-.638.638s.286.638.638.638h1.275z" style="fill: var(--color2, #4d5ae5)"/>
    </symbol>
    <symbol id="diligence" viewBox="0 0 32 32">
      <path fill="#4d5ae5" d="M14.925 14.965h1.066v4.798h-1.066v-4.797zM19.19 17.097h1.066v2.665H19.19v-2.665zM10.661 18.696h1.066v1.066h-1.066v-1.066zM7.463 18.163h1.066v1.599H7.463v-1.599z" style="fill: var(--color2, #4d5ae5)"/>
      <path fill="#2e2f42" d="M1.599 28.291h25.587c.883 0 1.599-.716 1.599-1.599V24.56c0-.883-.716-1.599-1.599-1.599h-.533V9.668L29.681 6.8c.703.346 1.553.136 2.013-.499s.396-1.508-.152-2.068-1.42-.644-2.065-.198c-.644.446-.873 1.292-.542 2.002L26.654 8.2V6.97c0-.883-.716-1.599-1.599-1.599H3.733c-.883 0-1.599.716-1.599 1.599v15.992h-.533c-.883 0-1.599.716-1.599 1.599v2.132c0 .883.716 1.599 1.599 1.599zM30.384 4.837c.294 0 .533.239.533.533s-.239.533-.533.533c-.294 0-.533-.239-.533-.533s.239-.533.533-.533zM3.198 6.969c0-.294.239-.533.533-.533h21.322c.294 0 .533.239.533.533v2.239l-1.066 1.013V8.035c0-.294-.239-.533-.533-.533H4.797c-.294 0-.533.239-.533.533v13.326c0 .294.239.533.533.533h19.19c.294 0 .533-.239.533-.533v-9.674l1.066-1.01v12.284H3.198V6.969zm4.798 6.93c-.721-.002-1.354.478-1.546 1.174s.105 1.433.725 1.801c.62.368 1.41.276 1.928-.226l1.853.93c.215.108.476.057.636-.123l3.939-4.431 3.872 2.901c.208.156.498.139.686-.039l3.365-3.188v8.131H5.33V8.569h18.124v2.66l-3.771 3.572-3.904-2.927c-.222-.166-.534-.135-.718.072l-3.993 4.493-1.493-.746c.011-.064.018-.129.02-.193 0-.883-.716-1.599-1.599-1.599zm.533 1.599c0 .294-.239.533-.533.533s-.533-.239-.533-.533c0-.294.239-.533.533-.533s.533.239.533.533zm3.198 8.529h5.331v.533c0 .294-.239.533-.533.533h-4.264c-.294 0-.533-.239-.533-.533v-.533zm-10.661.533c0-.294.239-.533.533-.533h9.062v.533c0 .883.716 1.599 1.599 1.599h4.264c.883 0 1.599-.716 1.599-1.599v-.533h9.062c.294 0 .533.239.533.533v2.132c0 .294-.239.533-.533.533H1.598c-.294 0-.533-.239-.533-.533V24.56z" style="fill: var(--color1, #2e2f42)"/>
    </symbol>
    <symbol id="technologies" viewBox="0 0 32 32">
      <path fill="#4d5ae5" d="M31.974 4.524c-.063-.193-.229-.333-.43-.363l-1.91-.278-.855-1.731c-.179-.365-.777-.365-.956 0l-.855 1.731-1.91.278c-.201.029-.367.17-.431.363-.062.193-.011.405.135.547l1.383 1.348-.326 1.903c-.034.2.048.402.212.522.166.121.382.135.562.04l1.709-.899 1.709.899c.078.041.164.061.249.061.11 0 .221-.034.314-.102.164-.119.246-.322.212-.522l-.326-1.903 1.383-1.348c.145-.142.197-.354.135-.547zm-2.463 1.327c-.125.122-.183.299-.153.472l.191 1.114-1-.526c-.078-.041-.163-.061-.249-.061s-.17.02-.249.061l-1.001.526.191-1.114c.03-.173-.028-.349-.153-.472l-.81-.789 1.119-.163c.174-.025.324-.134.402-.292l.5-1.013.5 1.013c.078.157.228.267.402.292l1.119.163-.809.789zM26.133 20.522h-1.067v1.067h1.067v-1.067zM26.133 22.656h-1.067v1.067h1.067v-1.067zM27.2 21.589h-1.067v1.067H27.2v-1.067zM25.067 21.589H24v1.067h1.067v-1.067zM22.4 26.389h-1.067v1.067H22.4v-1.067zM22.4 28.522h-1.067v1.067H22.4v-1.067zM23.467 27.456H22.4v1.067h1.067v-1.067zM21.333 27.456h-1.067v1.067h1.067v-1.067zM16 24.256h-1.067v1.067H16v-1.067zM16 26.389h-1.067v1.067H16v-1.067zM17.067 25.322H16v1.067h1.067v-1.067zM14.933 25.322h-1.067v1.067h1.067v-1.067zM5.867 6.122H4.8v1.067h1.067V6.122zM5.867 8.255H4.8v1.067h1.067V8.255z" style="fill: var(--color2, #4d5ae5)"/>
      <path fill="#4d5ae5" d="M6.933 7.189H5.866v1.067h1.067V7.189zM4.8 7.189H3.733v1.067H4.8V7.189z" style="fill: var(--color2, #4d5ae5)"/>
      <path fill="#2e2f42" d="M24.715 14.159c-.287-.388-.709-.637-1.188-.705-.481-.068-.956.058-1.34.352l-1.252.96-1.898 1.417-1.358-.541c2.421-1.086 4.114-3.508 4.114-6.32 0-3.823-3.123-6.933-6.961-6.933s-6.961 3.11-6.961 6.933c0 1.386.414 2.674 1.12 3.758l-2.764-.024h-.005c-.009 0-.015.004-.023.005-.053.002-.105.013-.155.031-.013.005-.026.008-.038.013-.006.003-.013.003-.019.006l-3.233 1.596c-.001 0-.001 0-.001.001l-1.893.911c-.021.009-.042.021-.063.035-.755.502-1.012 1.489-.598 2.295.22.429.595.745 1.056.889.178.055.359.083.539.083.29 0 .577-.071.839-.211l1.388-.738 2.264-1.169 1.357-.008L2.2 22.211c-.001.001-.001.001-.002.001L.859 23.545c-.316.315-.49.732-.49 1.178s.174.863.49 1.179c.325.323.752.485 1.179.485s.854-.162 1.18-.485l1.314-1.309 1.741-1.3.901.897-1.762 1.754c0 .001-.001.001-.002.001l-1.339 1.333c-.316.315-.49.732-.49 1.178s.174.863.49 1.179c.325.323.753.485 1.18.485s.855-.162 1.18-.485l3.482-3.467c.001-.001.001-.001.001-.002l1.01-1-.004-.004c.006-.006.015-.009.022-.015l5.166-5.658 3.471.494c.025.004.05.005.075.005.065 0 .127-.015.187-.038.018-.006.033-.015.05-.023.019-.01.039-.015.058-.027l3.213-2.133c.012-.008.018-.021.029-.029.013-.01.029-.014.041-.026l1.271-1.191c.662-.62.753-1.635.212-2.362zM2.13 17.77c-.173.093-.37.111-.558.052-.187-.058-.338-.186-.427-.358-.161-.314-.068-.695.214-.902l1.314-.632.449 1.313-.992.527zm3.498-1.828-1.548.8-.439-1.283 2.027-1.001-.04 1.484zm15.099-6.62c0 .918-.219 1.785-.599 2.559l-4.181-1.899c-.044-.573-.341-1.075-.788-1.388l1.464-4.86c2.378.756 4.105 2.974 4.105 5.588zm-11.789 0c0-3.235 2.644-5.867 5.894-5.867.253 0 .5.021.745.052l-1.432 4.754c-.019-.001-.037-.006-.057-.006-1.033 0-1.873.837-1.873 1.867s.84 1.867 1.873 1.867c.694 0 1.294-.383 1.618-.945l3.862 1.755c-1.075 1.446-2.795 2.39-4.737 2.39-3.25 0-5.894-2.632-5.894-5.867zm5.956.8c0 .441-.362.8-.806.8s-.806-.359-.806-.8c0-.441.362-.8.806-.8s.806.359.806.8zM2.465 25.146c-.236.234-.619.234-.854.001-.114-.114-.176-.263-.176-.423s.062-.309.176-.421l.962-.958.851.848-.959.955zm3.214 3.734c-.236.234-.619.235-.855.001-.114-.114-.176-.263-.176-.423s.062-.309.176-.421l.963-.959.852.848-.96.955zm3.481-3.469c-.001 0-.001 0-.002.001l-1.765 1.76-.852-.848 1.763-1.755s.001-.001.002-.001c.04-.04.065-.088.09-.135.007-.014.02-.026.026-.04.017-.041.019-.085.026-.129.003-.025.014-.047.014-.073 0-.036-.013-.07-.02-.106-.006-.032-.006-.065-.019-.095-.02-.05-.055-.094-.091-.138-.01-.012-.014-.027-.025-.038h-.001c-.001 0-.001-.002-.001-.002l-1.607-1.6c-.017-.017-.039-.024-.058-.038-.028-.022-.055-.042-.087-.058-.03-.015-.061-.024-.093-.033-.034-.01-.067-.017-.103-.02-.033-.002-.063.001-.095.005-.036.004-.069.009-.104.02-.034.011-.063.027-.094.045-.02.011-.042.015-.061.029L4.23 23.486l-.901-.897 2.399-2.386 4.361 4.289-.928.919zm6.819-7.017c-.015-.002-.03.004-.045.003-.039-.002-.076.001-.115.007-.03.005-.059.011-.088.021-.034.012-.065.028-.097.047-.03.018-.057.037-.083.061-.013.011-.028.017-.04.029l-4.698 5.146-4.328-4.257 2.833-2.818c.209-.208.21-.546.002-.755-.105-.105-.243-.157-.381-.156v-.001l-2.219.013.028-1.607 3.104.027c1.265 1.294 3.029 2.101 4.981 2.101.437 0 .864-.045 1.279-.123.04.032.079.065.13.085l2.41.96.152.758.178.885-3.003-.427zm4.041.178-.313-1.558 1.446-1.08.947 1.257-2.08 1.381zm3.754-2.831-.838.785-.931-1.236.831-.637c.155-.119.351-.168.543-.143.193.027.364.128.48.284.217.292.18.699-.085.947z" style="fill: var(--color1, #2e2f42)"/>
      <path fill="#2e2f42" d="m13.602 18.544-2.143-2.133c-.207-.207-.545-.207-.753 0l-2.142 2.133c-.1.101-.157.236-.157.378s.056.278.157.378l2.142 2.133c.104.103.241.155.377.155s.273-.052.376-.155l2.143-2.133c.1-.1.157-.236.157-.378s-.057-.278-.157-.378zm-2.519 1.759-1.387-1.381 1.387-1.381 1.387 1.381-1.387 1.381zM17.164 5.071l-.258 1.036c.071.018 1.738.452 1.738 2.149h1.067c0-2.017-1.666-2.965-2.547-3.185zM19.711 9.322h-1.067v1.067h1.067V9.322z" style="fill: var(--color1, #2e2f42)"/>
    </symbol>
    <symbol id="instagram" viewBox="0 0 32 32">
      <path d="M31.969 9.408c-.075-1.7-.35-2.869-.744-3.882-.406-1.075-1.031-2.038-1.85-2.838-.8-.813-1.769-1.444-2.832-1.844C25.524.45 24.361.175 22.661.1 20.948.019 20.404 0 16.06 0s-4.888.019-6.595.094c-1.7.075-2.869.35-3.882.744-1.075.406-2.038 1.031-2.838 1.85-.813.8-1.444 1.769-1.844 2.832C.507 6.539.232 7.702.157 9.402c-.081 1.713-.1 2.257-.1 6.601s.019 4.888.094 6.595c.075 1.7.35 2.869.744 3.882.406 1.075 1.038 2.038 1.85 2.838.8.813 1.769 1.444 2.832 1.844 1.019.394 2.182.669 3.882.744 1.706.075 2.25.094 6.595.094s4.888-.018 6.595-.094c1.7-.075 2.869-.35 3.882-.744 2.151-.831 3.851-2.532 4.682-4.682.394-1.019.669-2.182.744-3.882.075-1.707.094-2.251.094-6.595s-.006-4.888-.081-6.595zm-2.882 13.065c-.069 1.563-.331 2.407-.55 2.969-.538 1.394-1.644 2.501-3.038 3.038-.563.219-1.413.481-2.969.55-1.688.075-2.194.094-6.464.094s-4.782-.018-6.464-.094c-1.563-.069-2.407-.331-2.969-.55-.694-.256-1.325-.663-1.838-1.194-.531-.519-.938-1.144-1.194-1.838-.219-.563-.481-1.413-.55-2.969-.075-1.688-.094-2.194-.094-6.464s.019-4.782.094-6.464c.069-1.563.331-2.407.55-2.969.256-.694.663-1.325 1.2-1.838.519-.531 1.144-.938 1.838-1.194.563-.219 1.413-.481 2.969-.55 1.688-.075 2.194-.094 6.464-.094 4.276 0 4.782.019 6.464.094 1.563.069 2.407.331 2.969.55.694.256 1.325.662 1.838 1.194.531.519.938 1.144 1.194 1.838.219.563.481 1.413.55 2.969.075 1.688.094 2.194.094 6.464s-.019 4.77-.094 6.457z"/>
      <path d="M16.059 7.782c-4.538 0-8.22 3.682-8.22 8.22s3.682 8.22 8.22 8.22 8.22-3.682 8.22-8.22-3.682-8.22-8.22-8.22zm0 13.553c-2.944 0-5.332-2.388-5.332-5.332s2.388-5.332 5.332-5.332 5.332 2.388 5.332 5.332-2.388 5.332-5.332 5.332zM26.524 7.457c0 1.06-.859 1.919-1.919 1.919s-1.919-.859-1.919-1.919.859-1.919 1.919-1.919 1.919.859 1.919 1.919z"/>
    </symbol>
    <symbol id="twitter" viewBox="0 0 32 32">
      <path d="M32 6.078c-1.19.522-2.458.868-3.78 1.036 1.36-.812 2.398-2.088 2.886-3.626-1.268.756-2.668 1.29-4.16 1.588C25.742 3.794 24.026 3 22.154 3c-3.632 0-6.556 2.948-6.556 6.562 0 .52.044 1.02.152 1.496-5.454-.266-10.28-2.88-13.522-6.862-.566.982-.898 2.106-.898 3.316 0 2.272 1.17 4.286 2.914 5.452-1.054-.02-2.088-.326-2.964-.808v.072c0 3.188 2.274 5.836 5.256 6.446-.534.146-1.116.216-1.72.216-.42 0-.844-.024-1.242-.112.85 2.598 3.262 4.508 6.13 4.57-2.232 1.746-5.066 2.798-8.134 2.798-.538 0-1.054-.024-1.57-.09C2.906 27.93 6.35 29 10.064 29c12.072 0 18.672-10 18.672-18.668 0-.29-.01-.57-.024-.848C30.014 8.56 31.108 7.406 32 6.078z"/>
    </symbol>
    <symbol id="facebook" viewBox="0 0 32 32">
      <path d="M21.329 5.313h2.921V.225C23.746.156 22.013 0 19.994 0c-4.212 0-7.097 2.649-7.097 7.519V12H8.249v5.688h4.648V32h5.699V17.689h4.46l.708-5.688h-5.169V8.082c.001-1.644.444-2.769 2.735-2.769z"/>
    </symbol>
    <symbol id="linkedin" viewBox="0 0 32 32">
      <path d="M31.992 32v-.001H32V20.263c0-5.741-1.236-10.164-7.948-10.164-3.227 0-5.392 1.771-6.276 3.449h-.093v-2.913h-6.364v21.364h6.627V21.42c0-2.785.528-5.479 3.977-5.479 3.399 0 3.449 3.179 3.449 5.657v10.401h6.62zM.528 10.636h6.635V32H.528V10.636zM3.843 0C1.722 0 0 1.721 0 3.843s1.721 3.879 3.843 3.879c2.121 0 3.843-1.757 3.843-3.879C7.685 1.722 5.963 0 3.843 0z"/>
    </symbol>
    <symbol id="customer1" viewBox="0 0 104 56">
      <path d="M38 7L45.0078 13.6764L32 13.6687V46.0609H66V33.6758L73 40.3448V7H38ZM65.6924 32.8922L45.8226 13.962H65.6924V32.8922ZM59.5231 41.3227H37.3801V19.5373H38.9453V39.8475H59.5231V41.3227ZM41.7959 52.0611L40.9707 50.3643H40.2896L41.4858 52.6104V53.919H42.1035V52.6104L43.2998 50.3643H42.6211L41.7959 52.0611ZM44.8379 50.3643H44.9844L46.3271 53.919H45.6826L45.395 53.0865H44.0189L43.7319 53.919H43.0898L44.4277 50.3643H44.5718H44.8379ZM44.1864 52.6007H45.2271L44.7062 51.0927L44.1864 52.6007ZM48.4821 52.0117C48.4553 51.9776 48.4295 51.9445 48.4048 51.9122C48.3136 51.7917 48.2428 51.6754 48.1924 51.5631C48.1419 51.4491 48.1167 51.3319 48.1167 51.2115C48.1167 51.026 48.1549 50.8665 48.2314 50.733C48.3079 50.5995 48.4162 50.497 48.5562 50.4254C48.6961 50.3521 48.8597 50.3155 49.0469 50.3155C49.2275 50.3155 49.383 50.3521 49.5132 50.4254C49.645 50.497 49.7459 50.5922 49.8159 50.711C49.8875 50.8298 49.9233 50.96 49.9233 51.1016C49.9233 51.2139 49.903 51.3165 49.8623 51.4093C49.8216 51.502 49.7655 51.5867 49.6938 51.6632C49.6222 51.7397 49.5392 51.8121 49.4448 51.8805L49.1979 52.0602L49.9018 52.8909C49.925 52.8453 49.946 52.7973 49.9648 52.7472C50.0251 52.5909 50.0552 52.4176 50.0552 52.2271H50.563C50.563 52.3997 50.5459 52.5632 50.5117 52.7179C50.4792 52.8725 50.4263 53.0157 50.353 53.1475C50.3233 53.2022 50.2897 53.2545 50.2522 53.3044L50.7729 53.919H50.0918L49.8852 53.676C49.7734 53.7609 49.6518 53.8272 49.5205 53.8751C49.348 53.9369 49.1641 53.9679 48.9688 53.9679C48.7327 53.9679 48.5285 53.9247 48.356 53.8385C48.1834 53.7522 48.05 53.6334 47.9556 53.482C47.8628 53.3306 47.8164 53.1573 47.8164 52.962C47.8164 52.8171 47.8465 52.6902 47.9067 52.5811C47.967 52.4705 48.0492 52.3679 48.1533 52.2735C48.2495 52.1862 48.3591 52.099 48.4821 52.0117ZM48.7738 52.3689L48.7002 52.4224C48.6139 52.4924 48.5496 52.56 48.5073 52.6251C48.4666 52.6886 48.4398 52.7472 48.4268 52.8009C48.4137 52.8546 48.4072 52.9018 48.4072 52.9425C48.4072 53.0466 48.4292 53.141 48.4731 53.2257C48.5187 53.3103 48.5846 53.3778 48.6709 53.4283C48.7588 53.4771 48.8654 53.5015 48.9907 53.5015C49.1258 53.5015 49.2568 53.4714 49.3838 53.4112C49.4474 53.3802 49.5078 53.3429 49.5648 53.2992L48.7738 52.3689ZM48.9143 51.7196L49.1323 51.5728C49.2349 51.5045 49.3081 51.4377 49.3521 51.3726C49.396 51.3059 49.418 51.2229 49.418 51.1236C49.418 51.039 49.3854 50.9609 49.3203 50.8892C49.2552 50.8176 49.1632 50.7818 49.0444 50.7818C48.9614 50.7818 48.8914 50.8013 48.8345 50.8404C48.7775 50.8778 48.7344 50.9283 48.7051 50.9918C48.6774 51.0536 48.6636 51.1228 48.6636 51.1993C48.6636 51.2725 48.6823 51.3482 48.7197 51.4263C48.7572 51.5028 48.8084 51.5834 48.8735 51.668C48.8868 51.685 48.9004 51.7021 48.9143 51.7196ZM55.1333 52.7618H54.5229C54.505 52.9164 54.4676 53.0474 54.4106 53.1549C54.3553 53.2607 54.2731 53.3412 54.1641 53.3966C54.0566 53.4519 53.9159 53.4796 53.7417 53.4796C53.5985 53.4796 53.4756 53.4511 53.373 53.3941C53.2705 53.3372 53.1859 53.2566 53.1191 53.1524C53.054 53.0483 53.0052 52.9237 52.9727 52.7789C52.9417 52.6324 52.9263 52.4696 52.9263 52.2906V51.9903C52.9263 51.8015 52.9434 51.6339 52.9775 51.4874C53.0133 51.3393 53.0662 51.2148 53.1362 51.1138C53.2062 51.0129 53.2933 50.9364 53.3975 50.8844C53.5016 50.8323 53.6237 50.8062 53.7637 50.8062C53.9346 50.8062 54.0729 50.8355 54.1787 50.8941C54.2845 50.9511 54.3643 51.0341 54.418 51.1431C54.4733 51.2522 54.5091 51.3832 54.5254 51.5362H55.1357C55.1113 51.2986 55.0446 51.0878 54.9355 50.9039C54.8281 50.72 54.6768 50.5759 54.4814 50.4718C54.2861 50.3676 54.0469 50.3155 53.7637 50.3155C53.5407 50.3155 53.3397 50.3546 53.1606 50.4327C52.9832 50.5108 52.8311 50.6239 52.7041 50.7721C52.5771 50.9185 52.4795 51.0951 52.4111 51.3018C52.3444 51.5085 52.311 51.7397 52.311 51.9952V52.2906C52.311 52.5461 52.3436 52.7773 52.4087 52.984C52.4754 53.1907 52.5715 53.3673 52.6968 53.5138C52.8221 53.6586 52.9727 53.7709 53.1484 53.8507C53.3242 53.9288 53.522 53.9679 53.7417 53.9679C54.0282 53.9679 54.2715 53.9158 54.4717 53.8116C54.6719 53.7074 54.8273 53.565 54.938 53.3844C55.0487 53.2021 55.1138 52.9945 55.1333 52.7618ZM58.5244 52.2393V52.044C58.5244 51.7755 58.4886 51.5354 58.417 51.3238C58.347 51.1106 58.2469 50.9291 58.1167 50.7794C57.9865 50.628 57.8311 50.5133 57.6504 50.4351C57.4697 50.3554 57.2695 50.3155 57.0498 50.3155C56.8317 50.3155 56.6323 50.3554 56.4517 50.4351C56.2726 50.5133 56.1172 50.628 55.9854 50.7794C55.8551 50.9291 55.7542 51.1106 55.6826 51.3238C55.611 51.5354 55.5752 51.7755 55.5752 52.044V52.2393C55.5752 52.5079 55.611 52.7488 55.6826 52.962C55.7559 53.1752 55.8584 53.3567 55.9902 53.5064C56.1221 53.6562 56.2775 53.7709 56.4565 53.8507C56.6372 53.9288 56.8366 53.9679 57.0547 53.9679C57.2744 53.9679 57.4746 53.9288 57.6553 53.8507C57.8359 53.7709 57.9906 53.6562 58.1191 53.5064C58.2493 53.3567 58.3494 53.1752 58.4194 52.962C58.4894 52.7488 58.5244 52.5079 58.5244 52.2393ZM57.9116 52.0391V52.2393C57.9116 52.4379 57.8921 52.6137 57.853 52.7667C57.8156 52.9197 57.7603 53.0491 57.687 53.1549C57.6138 53.259 57.5243 53.338 57.4185 53.3917C57.3127 53.4438 57.1914 53.4698 57.0547 53.4698C56.9196 53.4698 56.7992 53.4438 56.6934 53.3917C56.5876 53.338 56.4964 53.259 56.4199 53.1549C56.3451 53.0491 56.2881 52.9197 56.249 52.7667C56.21 52.6137 56.1904 52.4379 56.1904 52.2393V52.0391C56.1904 51.8406 56.21 51.6656 56.249 51.5142C56.2881 51.3612 56.3442 51.2335 56.4175 51.1309C56.4923 51.0268 56.5827 50.9486 56.6885 50.8966C56.7943 50.8429 56.9147 50.816 57.0498 50.816C57.1849 50.816 57.3062 50.8429 57.4136 50.8966C57.521 50.9486 57.6113 51.0268 57.6846 51.1309C57.7594 51.2335 57.8156 51.3612 57.853 51.5142C57.8921 51.6656 57.9116 51.8406 57.9116 52.0391Z"/>
    </symbol>
    <symbol id="customer2" viewBox="0 0 104 56">
      <path fill-rule="evenodd" clip-rule="evenodd" d="M50.1136 5.93452H49.977C49.7671 5.92181 49.5571 5.91672 49.3471 5.91163H49.3471H49.3269H48.8918C48.4946 5.91163 48.0898 5.92181 47.6876 5.94215C47.6573 5.93994 47.6269 5.93994 47.5966 5.94215C43.9522 6.14863 40.3817 7.05951 37.0805 8.62492L36.6479 8.83344V30.9746L37.6598 30.6313C38.5477 30.3261 39.4938 30.0515 40.4728 29.7972C43.1193 29.1178 45.8367 28.7567 48.568 28.7216V31.6306C48.2062 31.6332 47.8546 31.6434 47.503 31.6612H47.4195C45.3175 31.7765 43.2317 32.0967 41.1913 32.6173C38.6072 33.2643 36.1143 34.2357 33.7716 35.5086V7.11189C36.2047 5.69275 38.8253 4.62687 41.5556 3.94596C43.9527 3.32705 46.4169 3.00931 48.8918 3H49.3193C49.8303 3.01271 50.3287 3.0356 50.7967 3.0712C52.0297 3.15778 53.2528 3.35263 54.4521 3.65353V6.51685C53.2874 6.24551 52.1032 6.06695 50.9105 5.98284C50.8863 5.98079 50.8621 5.97872 50.8379 5.97666C50.5911 5.95561 50.344 5.93452 50.1136 5.93452ZM55.1528 8.86138C55.7877 8.9097 56.4455 8.93259 57.1108 8.93259C59.7125 8.92307 62.3031 8.59083 64.8239 7.94339C67.4068 7.29396 69.8986 6.32178 72.2411 5.04956V32.9402C69.8067 34.3585 67.1853 35.4243 64.4546 36.1061C62.0571 36.7227 59.5931 37.0395 57.1184 37.0496C55.2433 37.0647 53.3737 36.8443 51.553 36.3935V8.32229C51.983 8.42146 52.4257 8.51301 52.876 8.58929C53.6147 8.7139 54.3939 8.80544 55.1528 8.86138ZM69.3471 9.07753L68.3352 9.41828C67.4042 9.73106 66.4657 10.0108 65.5221 10.26C62.7749 10.966 59.9514 11.3281 57.1158 11.3382C56.4556 11.3382 55.8485 11.3204 55.2616 11.2822L54.4546 11.2288V31.3178V34.0057L55.1477 34.0667C55.7903 34.1227 56.4531 34.1506 57.1209 34.1506C59.3544 34.1412 61.5781 33.8533 63.7412 33.2937C65.5223 32.8469 67.2552 32.2243 68.9145 31.4348L69.3471 31.2263V9.07753Z"/>
      <path d="M35.7371 45.2124C35.5917 45.0615 35.4163 44.943 35.2224 44.8646C35.0284 44.7862 34.8203 44.7496 34.6114 44.7572C34.3888 44.7542 34.1678 44.7957 33.9613 44.8793C33.7719 44.9547 33.5998 45.068 33.4553 45.2124C33.3125 45.3572 33.2013 45.5304 33.129 45.721C33.0497 45.9207 33.0101 46.1341 33.0126 46.3491V50.1431C33.0036 50.4104 33.0546 50.6764 33.1619 50.9212C33.2514 51.1156 33.3807 51.2889 33.5413 51.4298C33.693 51.5575 33.871 51.6495 34.0625 51.6994C34.2469 51.7512 34.4376 51.7777 34.6291 51.7782C34.8404 51.7803 35.0495 51.7351 35.2413 51.646C35.4309 51.563 35.6028 51.4438 35.7473 51.295C35.8881 51.1476 36.0005 50.9752 36.0786 50.7864C36.1597 50.5951 36.201 50.3892 36.2001 50.1812V49.7566H35.2084V50.0948C35.2114 50.2103 35.1916 50.3252 35.1502 50.433C35.1179 50.5137 35.0688 50.5866 35.006 50.6466C34.9446 50.6962 34.8742 50.7334 34.7986 50.7559C34.7316 50.7782 34.6617 50.7902 34.5912 50.7915C34.5026 50.8018 34.413 50.7885 34.3312 50.7527C34.2495 50.717 34.1786 50.6602 34.1257 50.5881C34.0322 50.4356 33.9864 50.2585 33.9942 50.0795V46.5423C33.988 46.3462 34.0297 46.1515 34.1156 45.9753C34.1671 45.8952 34.2399 45.8313 34.3258 45.7908C34.4117 45.7503 34.5071 45.7349 34.6013 45.7464C34.6868 45.7434 34.7717 45.7612 34.8488 45.7984C34.9259 45.8356 34.9929 45.8911 35.044 45.96C35.155 46.1057 35.213 46.2852 35.2084 46.4686V46.7966H36.19V46.4101C36.1919 46.1831 36.1507 45.9578 36.0685 45.7464C35.9953 45.5476 35.8825 45.3659 35.7371 45.2124Z"/>
      <path d="M41.6289 45.1691C41.3127 44.9021 40.9136 44.7546 40.5007 44.7521C40.2987 44.7529 40.0984 44.7891 39.9087 44.8589C39.7161 44.9279 39.5384 45.0332 39.3851 45.1691C39.2208 45.3168 39.0897 45.498 39.0005 45.7006C38.9006 45.9323 38.8515 46.183 38.8563 46.4355V50.0744C38.8495 50.3304 38.8987 50.5847 39.0005 50.8195C39.0903 51.0151 39.2215 51.1887 39.3851 51.328C39.5367 51.4688 39.7147 51.5777 39.9087 51.6485C40.0984 51.7183 40.2987 51.7544 40.5007 51.7553C40.7027 51.7549 40.9031 51.7187 41.0926 51.6485C41.29 51.5767 41.4719 51.468 41.6289 51.328C41.7871 51.1861 41.9145 51.013 42.0033 50.8195C42.1051 50.5847 42.1544 50.3304 42.1475 50.0744V46.4355C42.1524 46.183 42.1032 45.9323 42.0033 45.7006C41.9151 45.5001 41.7878 45.3194 41.6289 45.1691ZM41.166 50.0744C41.1743 50.1714 41.1609 50.269 41.1268 50.3601C41.0926 50.4512 41.0386 50.5334 40.9687 50.6008C40.8377 50.7106 40.6725 50.7708 40.5019 50.7708C40.3313 50.7708 40.1662 50.7106 40.0352 50.6008C39.9652 50.5334 39.9112 50.4512 39.8771 50.3601C39.8429 50.269 39.8295 50.1714 39.8379 50.0744V46.4355C39.8295 46.3385 39.8429 46.2409 39.8771 46.1498C39.9112 46.0587 39.9652 45.9764 40.0352 45.9091C40.1662 45.7993 40.3313 45.7391 40.5019 45.7391C40.6725 45.7391 40.8377 45.7993 40.9687 45.9091C41.0386 45.9764 41.0926 46.0587 41.1268 46.1498C41.1609 46.2409 41.1743 46.3385 41.166 46.4355V50.0744Z"/>
      <path d="M49.3673 51.6994V44.8107H48.4136L47.1614 48.4572H47.1437L45.8813 44.8107H44.9377V51.6994H45.9218V47.5087H45.9395L46.9033 50.4712H47.3941L48.3655 47.5087H48.3832V51.6994H49.3673Z"/>
      <path d="M54.9581 45.2937C54.8065 45.1237 54.6153 44.9943 54.4015 44.9173C54.1712 44.8424 53.9302 44.8063 53.6881 44.8105H52.226V51.6993H53.2075V49.0089H53.7134C54.0197 49.0228 54.3244 48.958 54.5988 48.8207C54.822 48.6968 55.0081 48.515 55.1377 48.2943C55.2512 48.1111 55.3277 47.9071 55.3628 47.6942C55.4014 47.435 55.4192 47.173 55.4159 46.911C55.4255 46.5802 55.3932 46.2495 55.3198 45.9269C55.2543 45.6885 55.1299 45.4706 54.9581 45.2937ZM54.4521 47.3941C54.4479 47.5188 54.4168 47.6412 54.361 47.7527C54.3049 47.8586 54.2162 47.9434 54.1081 47.9942C53.9627 48.0593 53.8041 48.0889 53.6451 48.0807H53.1974V45.7387H53.7033C53.8557 45.7312 54.0075 45.7609 54.146 45.8251C54.2475 45.8834 54.3281 45.9724 54.3762 46.0794C54.4299 46.2004 54.4591 46.331 54.4622 46.4634C54.4622 46.6084 54.4622 46.7609 54.4622 46.9211C54.4622 47.0813 54.4723 47.2466 54.4622 47.3941H54.4521Z"/>
      <path d="M59.6077 44.8107H58.8032L57.2854 51.6994H58.2669L58.5553 50.2194H59.8935L60.1819 51.6994H61.1635L59.6077 44.8107ZM58.702 49.2811L59.1852 46.784H59.2029L59.6836 49.2811H58.702Z"/>
      <path d="M65.9497 48.9607H65.932L64.4496 44.8107H63.506V51.6994H64.4875V47.557H64.5078L66.0079 51.6994H66.9312V44.8107H65.9497V48.9607Z"/>
      <path d="M71.9476 44.8107L71.1583 47.5494H71.1381L70.3488 44.8107H69.3091L70.6574 48.7878V51.6994H71.639V48.7878L72.9873 44.8107H71.9476Z"/>
      <path d="M33 53.6445H33.4731V54.9719H33.7943V53.6445H34.2649V53.3724H33V53.6445Z"/>
      <path d="M36.9767 53.3724L36.3569 54.9719H36.6984L36.83 54.6083H37.4675L37.6041 54.9719H37.9532L37.3182 53.3724H36.9767ZM36.9261 54.3387L37.1437 53.7462L37.3612 54.3387H36.9261Z"/>
      <path d="M40.9079 54.3821H41.2773V54.5881C41.1694 54.6746 41.0358 54.722 40.8978 54.7229C40.8333 54.7265 40.7689 54.7145 40.7099 54.688C40.6509 54.6614 40.5991 54.6211 40.5588 54.5703C40.474 54.4485 40.4322 54.3017 40.4399 54.1533C40.4399 53.7973 40.5942 53.6193 40.9003 53.6193C40.9809 53.6112 41.0617 53.6325 41.128 53.6791C41.1944 53.7257 41.2419 53.7947 41.2621 53.8735L41.5783 53.8125C41.51 53.4997 41.2849 53.3421 40.9003 53.3421C40.6947 53.3366 40.4947 53.4103 40.3413 53.5481C40.2607 53.6276 40.1983 53.7239 40.1586 53.8302C40.1188 53.9365 40.1026 54.0502 40.1111 54.1634C40.1017 54.3823 40.1749 54.5966 40.316 54.7636C40.3943 54.8444 40.4892 54.9071 40.594 54.9475C40.6988 54.9879 40.8111 55.0049 40.9231 54.9975C41.1734 55.0045 41.4165 54.9133 41.6011 54.7432V54.1126H40.9079V54.3821Z"/>
      <path d="M44.9226 53.3724H44.5988V54.9719H45.7194V54.6998H44.9226V53.3724Z"/>
      <path d="M48.3175 53.3724H47.9937V54.9719H48.3175V53.3724Z"/>
      <path d="M51.6365 54.4405L50.9813 53.3724H50.6676V54.9719H50.9686V53.9268L51.6112 54.9719H51.9325V53.3724H51.6365V54.4405Z"/>
      <path d="M54.6368 54.2675H55.4337V53.9954H54.6368V53.6445H55.4944V53.3724H54.313V54.9719H55.5273V54.6998H54.6368V54.2675Z"/>
      <path d="M61.9122 54.0031H61.2823V53.3724H60.9611V54.9719H61.2823V54.2726H61.9122V54.9719H62.2335V53.3724H61.9122V54.0031Z"/>
      <path d="M64.9302 54.2675H65.7296V53.9954H64.9302V53.6445H65.7903V53.3724H64.6089V54.9719H65.8206V54.6998H64.9302V54.2675Z"/>
      <path d="M69.0233 54.2676C69.3015 54.2244 69.4432 54.0769 69.4432 53.8226C69.4513 53.7546 69.441 53.6856 69.4134 53.623C69.3858 53.5603 69.3419 53.5063 69.2863 53.4666C69.1415 53.3938 68.9799 53.3614 68.8183 53.3725H68.1404V54.972H68.4617V54.3032H68.5249C68.5934 54.299 68.6619 54.3112 68.7247 54.3388C68.7717 54.3678 68.8108 54.4079 68.8386 54.4558L69.1877 54.9644H69.5722L69.3774 54.6516C69.2913 54.4972 69.1699 54.3656 69.0233 54.2676ZM68.6994 54.0464H68.4617V53.6446H68.7146C68.8248 53.6357 68.9357 53.6486 69.041 53.6827C69.0644 53.7034 69.0828 53.7291 69.095 53.7579C69.1072 53.7867 69.1127 53.8179 69.1113 53.8492C69.1098 53.8804 69.1014 53.911 69.0866 53.9385C69.0718 53.966 69.051 53.9899 69.0258 54.0082C68.9202 54.0406 68.8096 54.0535 68.6994 54.0464Z"/>
      <path d="M72.1096 54.2675H72.9064V53.9954H72.1096V53.6445H72.9697V53.3724H71.7858V54.9719H73V54.6998H72.1096V54.2675Z"/>
    </symbol>
    <symbol id="customer3" viewBox="0 0 104 56">
      <path d="M36.8098 49.2233C36.8259 49.2236 36.8418 49.2268 36.8565 49.2324C36.8712 49.2381 36.8844 49.2462 36.8954 49.2563L37.1162 49.4639C36.9448 49.6319 36.733 49.7662 36.4951 49.8578C36.2167 49.9577 35.9165 50.0059 35.6146 49.9993C35.3309 50.0043 35.049 49.9593 34.7865 49.8672C34.5497 49.7826 34.337 49.6555 34.1626 49.4945C33.9848 49.3275 33.8477 49.1319 33.7596 48.919C33.6632 48.6817 33.6155 48.4319 33.6189 48.1807C33.6149 47.9279 33.6664 47.6766 33.7707 47.44C33.8671 47.2258 34.0126 47.0301 34.1985 46.8645C34.387 46.702 34.6125 46.5744 34.861 46.4894C35.1329 46.3994 35.4224 46.3545 35.714 46.3573C35.9848 46.3517 36.2542 46.3926 36.5062 46.4776C36.7248 46.5587 36.9255 46.6712 37.0997 46.8102L36.9147 47.0319C36.9019 47.0475 36.8861 47.0611 36.8678 47.072C36.846 47.0848 36.8196 47.0907 36.7933 47.0886C36.7646 47.0869 36.737 47.0787 36.7132 47.065L36.6138 47.006L36.4758 46.9305C36.4162 46.9025 36.3544 46.8781 36.2909 46.8574C36.209 46.8324 36.125 46.8126 36.0397 46.7984C35.9314 46.7814 35.8213 46.7735 35.7112 46.7748C35.5012 46.7726 35.2929 46.8063 35.0984 46.8739C34.917 46.9365 34.7533 47.0314 34.6181 47.1522C34.4805 47.2807 34.3744 47.4315 34.3062 47.5957C34.2284 47.7835 34.1901 47.9815 34.193 48.1807C34.1897 48.3829 34.228 48.5841 34.3062 48.7751C34.3735 48.9378 34.4776 49.0877 34.6126 49.2162C34.739 49.336 34.8957 49.4295 35.0708 49.4898C35.251 49.5536 35.4444 49.5857 35.6394 49.5842C35.7521 49.5856 35.8647 49.5793 35.9762 49.5653C36.1582 49.5463 36.3328 49.4923 36.4869 49.4072C36.5641 49.3637 36.6371 49.3148 36.7049 49.261C36.7333 49.2379 36.7706 49.2244 36.8098 49.2233Z"/>
      <path d="M43.1861 48.1803C43.1896 48.4305 43.139 48.6792 43.0371 48.9138C42.9471 49.1266 42.8054 49.3207 42.6213 49.4834C42.4371 49.646 42.2148 49.7734 41.9688 49.8573C41.4284 50.0334 40.831 50.0334 40.2906 49.8573C40.0462 49.7721 39.8253 49.6444 39.6419 49.4822C39.4579 49.3167 39.3151 49.1209 39.2223 48.9067C39.0235 48.4317 39.0235 47.9124 39.2223 47.4373C39.3165 47.2231 39.459 47.0267 39.6419 46.8595C39.8268 46.7024 40.0476 46.5796 40.2906 46.4986C40.8303 46.3193 41.4291 46.3193 41.9688 46.4986C42.214 46.5837 42.4359 46.7114 42.6203 46.8736C42.802 47.0376 42.9437 47.2308 43.0371 47.442C43.1393 47.6782 43.1899 47.9285 43.1861 48.1803ZM42.6065 48.1803C42.6108 47.9801 42.5753 47.7807 42.5016 47.5906C42.4397 47.4278 42.3392 47.2777 42.2062 47.1496C42.0768 47.0284 41.9174 46.9333 41.7397 46.8713C41.347 46.7423 40.9123 46.7423 40.5197 46.8713C40.3419 46.9333 40.1826 47.0284 40.0532 47.1496C39.9184 47.2769 39.8168 47.4272 39.7551 47.5906C39.6146 47.9746 39.6146 48.386 39.7551 48.7699C39.8174 48.9331 39.9189 49.0833 40.0532 49.211C40.1828 49.3315 40.3421 49.4257 40.5197 49.487C40.913 49.6126 41.3463 49.6126 41.7397 49.487C41.9173 49.4257 42.0766 49.3315 42.2062 49.211C42.3386 49.0826 42.4391 48.9325 42.5016 48.7699C42.5757 48.5799 42.6111 48.3805 42.6065 48.1803Z"/>
      <path d="M47.5365 48.7987L47.5944 48.9308C47.6165 48.8836 47.6358 48.8412 47.6579 48.7987C47.679 48.7544 47.7029 48.7111 47.7297 48.669L49.1402 46.4781C49.1678 46.4404 49.1927 46.4168 49.2203 46.4097C49.2578 46.4 49.297 46.396 49.3362 46.3979H49.753V49.9614H49.2589V47.3413C49.2589 47.3083 49.2589 47.2705 49.2589 47.2304C49.2562 47.1896 49.2562 47.1486 49.2589 47.1078L47.8401 49.3293C47.8221 49.3626 47.7933 49.3908 47.757 49.4104C47.7208 49.4301 47.6787 49.4404 47.6358 49.4402H47.5558C47.5128 49.4407 47.4706 49.4305 47.4343 49.4108C47.398 49.3911 47.3692 49.3628 47.3515 49.3293L45.8913 47.0937C45.8913 47.1361 45.8913 47.1786 45.8913 47.221C45.8913 47.2635 45.8913 47.3012 45.8913 47.3342V49.9543H45.4138V46.3979H45.8306C45.8697 46.396 45.909 46.4 45.9465 46.4097C45.9807 46.4242 46.008 46.4484 46.0238 46.4781L47.4647 48.6714C47.493 48.7119 47.517 48.7545 47.5365 48.7987Z"/>
      <path d="M52.8447 48.6217V49.9564H52.2926V46.3978H53.5237C53.7561 46.394 53.9878 46.4202 54.211 46.4756C54.3897 46.5189 54.5554 46.5945 54.6969 46.6973C54.8195 46.7937 54.914 46.9132 54.9729 47.0463C55.0381 47.1915 55.0699 47.346 55.0667 47.5015C55.0692 47.6576 55.0344 47.8124 54.9646 47.9566C54.8983 48.0932 54.7963 48.215 54.6665 48.3127C54.5249 48.4198 54.3584 48.5002 54.1779 48.5486C53.963 48.6072 53.7382 48.6351 53.5127 48.6311L52.8447 48.6217ZM52.8447 48.2396H53.5127C53.6578 48.2412 53.8022 48.2229 53.9405 48.1854C54.0546 48.1526 54.1598 48.1004 54.2497 48.0321C54.3326 47.9668 54.3968 47.8862 54.4374 47.7963C54.4826 47.7012 54.5051 47.5994 54.5036 47.4968C54.5101 47.3978 54.4912 47.2989 54.4483 47.2069C54.4054 47.1148 54.3395 47.0319 54.2552 46.9638C54.0443 46.8231 53.7794 46.755 53.5127 46.7728H52.8447V48.2396Z"/>
      <path d="M60.2645 49.9613H59.8283C59.7846 49.9627 59.7416 49.951 59.7069 49.9282C59.6756 49.906 59.651 49.8777 59.6351 49.8457L59.2597 48.9848H57.3744L56.9852 49.8457C56.9709 49.8772 56.9471 49.9048 56.9162 49.9259C56.8811 49.95 56.837 49.9626 56.792 49.9613H56.3558L58.012 46.3975H58.5862L60.2645 49.9613ZM57.5317 48.6381H59.0886L58.4316 47.1876C58.3814 47.0785 58.3399 46.9666 58.3074 46.8527L58.2439 47.039C58.2246 47.0956 58.2025 47.1475 58.1832 47.1899L57.5317 48.6381Z"/>
      <path d="M62.6495 46.414C62.6825 46.4295 62.7109 46.4513 62.7323 46.4777L65.1476 49.1641C65.1476 49.1216 65.1476 49.0792 65.1476 49.0391C65.1476 48.999 65.1476 48.9589 65.1476 48.9212V46.3975H65.6417V49.9613H65.3657C65.3265 49.9623 65.2876 49.955 65.2525 49.9401C65.2184 49.9231 65.1884 49.9006 65.1642 49.874L62.7517 47.19C62.7543 47.2309 62.7543 47.2718 62.7517 47.3126C62.7517 47.3527 62.7517 47.3881 62.7517 47.4211V49.9613H62.2576V46.3975H62.5502C62.5843 46.3967 62.6182 46.4024 62.6495 46.414Z"/>
      <path d="M69.7104 48.5438V49.9589H69.1583V48.5438L67.6318 46.3975H68.1259C68.1685 46.3954 68.2106 46.4062 68.2446 46.4282C68.2747 46.4511 68.2999 46.4782 68.3192 46.5084L69.2743 47.8928C69.3129 47.9518 69.346 48.006 69.3736 48.0579C69.4012 48.1098 69.4233 48.1593 69.4426 48.2089L69.5144 48.0556C69.5412 47.9995 69.5726 47.9451 69.6083 47.8928L70.5495 46.4989C70.5693 46.4711 70.5935 46.4457 70.6213 46.4235C70.6541 46.399 70.6966 46.3864 70.74 46.3881H71.2396L69.7104 48.5438Z"/>
      <path d="M47.2632 40.417C47.5033 40.4429 47.7462 40.4642 47.9919 40.483C51.7165 39.0595 54.8673 36.7295 57.0506 33.7844C59.2338 30.8393 60.3527 27.4097 60.2672 23.9243L56.1626 20.4172C56.9972 24.1281 56.6068 27.9642 55.0351 31.4963C53.4634 35.0284 50.7724 38.1171 47.2632 40.417Z"/>
      <path d="M45.7975 40.2539L45.9079 40.2728C49.6578 37.9811 52.5168 34.7809 54.1151 31.0861C55.7135 27.3912 55.9776 23.3717 54.8735 19.5472L49.0271 14.5521C51.3918 18.658 52.3436 23.253 51.7719 27.8029C51.2002 32.3528 49.1284 36.6705 45.7975 40.2539Z"/>
      <path d="M65.6251 28.0424C64.6318 31.872 62.2195 35.3258 58.7463 37.8911C57.7319 38.6444 56.6378 39.3155 55.478 39.8957C58.3062 39.1855 60.9057 37.9298 63.0761 36.2255C65.2465 34.5213 66.9298 32.4139 67.9962 30.0659L65.6251 28.0424Z"/>
      <path d="M64.6948 27.4784L61.3189 24.594C61.2544 27.8825 60.1602 31.0963 58.15 33.9012C56.1399 36.7062 53.2871 39 49.8883 40.5442H49.9049C50.6623 40.5439 51.419 40.5053 52.1711 40.4286C55.3475 39.3209 58.1535 37.5586 60.3388 35.2989C62.524 33.0392 64.0206 30.3525 64.6948 27.4784Z"/>
      <path d="M46.2861 12.4457L42.2587 9C38.6584 10.1887 35.562 12.2784 33.3747 14.9955C31.1875 17.7127 30.0112 20.9308 30 24.2285V24.2285C30.0135 27.8725 31.449 31.4085 34.0793 34.2769C36.7096 37.1454 40.3845 39.1824 44.5222 40.0656C48.216 36.2205 50.3786 31.4693 50.6958 26.5023C51.013 21.5353 49.4683 16.6113 46.2861 12.4457Z"/>
      <path d="M74 26.9478C73.9854 22.6245 71.9689 18.4818 68.3908 15.4247C64.8127 12.3676 59.964 10.6447 54.9039 10.6322C52.5657 10.6301 50.2473 10.9988 48.0665 11.7194L72.7247 32.7873C73.569 30.925 74.0015 28.945 74 26.9478Z"/>
    </symbol>
    <symbol id="customer4" viewBox="0 0 104 56">
      <path d="M24.0782 21.5179H24.0753C21.6897 21.5179 19.7557 23.2616 19.7557 25.4124V25.415C19.7557 27.5658 21.6897 29.3094 24.0753 29.3094H24.0782C26.4638 29.3094 28.3978 27.5658 28.3978 25.415V25.4124C28.3978 23.2616 26.4638 21.5179 24.0782 21.5179Z"/>
      <path d="M55.9614 20.273C55.9546 17.2855 54.6355 14.4221 52.2928 12.3094C49.9501 10.1967 46.7745 9.00678 43.461 9V9C40.1466 9.00543 36.9696 10.1948 34.6256 12.3076C32.2817 14.4205 30.9618 17.2846 30.955 20.273V36.7472C30.955 36.7472 55.9585 34.2364 55.9614 20.2755V20.273Z"/>
      <path d="M11 42.1543C11.006 44.233 11.9243 46.2251 13.5543 47.6952C15.1843 49.1653 17.3935 49.9939 19.699 50C22.004 49.9939 24.2127 49.1657 25.8426 47.6961C27.4725 46.2265 28.3912 44.2351 28.398 42.1569V30.6938C28.398 30.6938 11 32.4422 11 42.1543ZM19.699 44.2082C19.2484 44.2082 18.808 44.0877 18.4334 43.862C18.0588 43.6364 17.7668 43.3156 17.5944 42.9403C17.422 42.565 17.3769 42.152 17.4648 41.7536C17.5527 41.3552 17.7696 40.9893 18.0882 40.702C18.4068 40.4148 18.8127 40.2192 19.2546 40.1399C19.6965 40.0607 20.1545 40.1014 20.5707 40.2568C20.987 40.4123 21.3427 40.6755 21.593 41.0133C21.8433 41.351 21.9769 41.7481 21.9769 42.1543C21.9781 42.4247 21.92 42.6926 21.806 42.9427C21.692 43.1927 21.5244 43.4201 21.3128 43.6116C21.1011 43.8031 20.8496 43.9551 20.5727 44.0588C20.2958 44.1625 19.9988 44.2159 19.699 44.2159V44.2082Z"/>
      <path d="M35.6089 40.515V44.7806H34.73V40.515H35.6089ZM37.3081 42.3373V43.0228H35.3687V42.3373H37.3081ZM37.5132 40.515V41.2035H35.3687V40.515H37.5132ZM41.5269 42.5482V42.7504C41.5269 43.0746 41.4829 43.3656 41.395 43.6234C41.3071 43.8812 41.1831 44.101 41.0229 44.2826C40.8628 44.4623 40.6714 44.6 40.4487 44.6957C40.228 44.7914 39.9829 44.8392 39.7134 44.8392C39.4458 44.8392 39.2007 44.7914 38.978 44.6957C38.7573 44.6 38.5659 44.4623 38.4038 44.2826C38.2417 44.101 38.1157 43.8812 38.0259 43.6234C37.938 43.3656 37.894 43.0746 37.894 42.7504V42.5482C37.894 42.222 37.938 41.931 38.0259 41.6752C38.1138 41.4174 38.2378 41.1976 38.3979 41.016C38.5601 40.8344 38.7515 40.6957 38.9722 40.6C39.1948 40.5043 39.4399 40.4564 39.7075 40.4564C39.9771 40.4564 40.2222 40.5043 40.4429 40.6C40.6655 40.6957 40.8569 40.8344 41.0171 41.016C41.1792 41.1976 41.3042 41.4174 41.3921 41.6752C41.4819 41.931 41.5269 42.222 41.5269 42.5482ZM40.6392 42.7504V42.5424C40.6392 42.3158 40.6187 42.1166 40.5776 41.9447C40.5366 41.7728 40.4761 41.6283 40.396 41.5111C40.3159 41.3939 40.2183 41.306 40.103 41.2474C39.9878 41.1869 39.856 41.1566 39.7075 41.1566C39.5591 41.1566 39.4272 41.1869 39.312 41.2474C39.1987 41.306 39.1021 41.3939 39.022 41.5111C38.9438 41.6283 38.8843 41.7728 38.8433 41.9447C38.8022 42.1166 38.7817 42.3158 38.7817 42.5424V42.7504C38.7817 42.975 38.8022 43.1742 38.8433 43.348C38.8843 43.5199 38.9448 43.6654 39.0249 43.7845C39.105 43.9017 39.2026 43.9906 39.3179 44.0511C39.4331 44.1117 39.5649 44.142 39.7134 44.142C39.8618 44.142 39.9937 44.1117 40.1089 44.0511C40.2241 43.9906 40.3208 43.9017 40.3989 43.7845C40.4771 43.6654 40.5366 43.5199 40.5776 43.348C40.6187 43.1742 40.6392 42.975 40.6392 42.7504ZM44.3804 43.6644C44.3804 43.5883 44.3687 43.5199 44.3452 43.4594C44.3237 43.3969 44.2827 43.3402 44.2222 43.2894C44.1616 43.2367 44.0767 43.1849 43.9673 43.1342C43.8579 43.0834 43.7163 43.0306 43.5425 42.976C43.3491 42.9135 43.1655 42.8431 42.9917 42.765C42.8198 42.6869 42.6675 42.5961 42.5347 42.4926C42.4038 42.3871 42.3003 42.265 42.2241 42.1263C42.1499 41.9877 42.1128 41.8265 42.1128 41.6429C42.1128 41.4652 42.1519 41.3041 42.23 41.1595C42.3081 41.0131 42.4175 40.8881 42.5581 40.7845C42.6987 40.6791 42.8647 40.598 43.0562 40.5414C43.2495 40.4847 43.4614 40.4564 43.6919 40.4564C44.0063 40.4564 44.2808 40.5131 44.5151 40.6263C44.7495 40.7396 44.9312 40.8949 45.0601 41.0922C45.1909 41.2894 45.2563 41.515 45.2563 41.7689H44.3833C44.3833 41.6439 44.3569 41.5345 44.3042 41.4408C44.2534 41.3451 44.1753 41.2699 44.0698 41.2152C43.9663 41.1605 43.8354 41.1332 43.6772 41.1332C43.5249 41.1332 43.3979 41.1566 43.2964 41.2035C43.1948 41.2484 43.1187 41.3099 43.0679 41.3881C43.0171 41.4642 42.9917 41.5502 42.9917 41.6459C42.9917 41.7181 43.0093 41.7836 43.0444 41.8422C43.0815 41.9008 43.1362 41.9554 43.2085 42.0062C43.2808 42.057 43.3696 42.1049 43.4751 42.1498C43.5806 42.1947 43.7026 42.2386 43.8413 42.2816C44.0737 42.3519 44.2778 42.431 44.4536 42.5189C44.6313 42.6068 44.7798 42.7054 44.8989 42.8148C45.0181 42.9242 45.1079 43.0482 45.1685 43.1869C45.229 43.3256 45.2593 43.4828 45.2593 43.6586C45.2593 43.8441 45.2231 44.0101 45.1509 44.1566C45.0786 44.3031 44.9741 44.4271 44.8374 44.5287C44.7007 44.6302 44.5376 44.7074 44.3481 44.7601C44.1587 44.8129 43.9468 44.8392 43.7124 44.8392C43.5015 44.8392 43.2935 44.8119 43.0884 44.7572C42.8833 44.7006 42.6968 44.6156 42.5288 44.5023C42.3628 44.389 42.23 44.2445 42.1304 44.0687C42.0308 43.8929 41.981 43.6849 41.981 43.4447H42.8628C42.8628 43.5775 42.8833 43.6898 42.9243 43.7816C42.9653 43.8734 43.0229 43.9476 43.0972 44.0043C43.1733 44.0609 43.2632 44.1019 43.3667 44.1273C43.4722 44.1527 43.5874 44.1654 43.7124 44.1654C43.8647 44.1654 43.9897 44.1439 44.0874 44.101C44.187 44.058 44.2603 43.9984 44.3071 43.9222C44.356 43.8461 44.3804 43.7601 44.3804 43.6644ZM47.7642 40.515V44.7806H46.8882V40.515H47.7642ZM49.0767 40.515V41.2035H45.5962V40.515H49.0767ZM52.4399 44.0951V44.7806H50.1694V44.0951H52.4399ZM50.4565 40.515V44.7806H49.5776V40.515H50.4565ZM52.144 42.2523V42.9203H50.1694V42.2523H52.144ZM52.437 40.515V41.2035H50.1694V40.515H52.437ZM52.9526 40.515H54.5435C54.8696 40.515 55.1499 40.5638 55.3843 40.6615C55.6206 40.7592 55.8022 40.9037 55.9292 41.0951C56.0562 41.2865 56.1196 41.5219 56.1196 41.8011C56.1196 42.0297 56.0806 42.226 56.0024 42.39C55.9263 42.5521 55.8179 42.6879 55.6772 42.7972C55.5386 42.9047 55.3755 42.9906 55.188 43.0551L54.9097 43.2015H53.5269L53.521 42.516H54.5493C54.7036 42.516 54.8315 42.4886 54.9331 42.434C55.0347 42.3793 55.1108 42.3031 55.1616 42.2054C55.2144 42.1078 55.2407 41.9945 55.2407 41.8656C55.2407 41.7289 55.2153 41.6107 55.1646 41.5111C55.1138 41.4115 55.0366 41.3353 54.9331 41.2826C54.8296 41.2299 54.6997 41.2035 54.5435 41.2035H53.8315V44.7806H52.9526V40.515ZM55.3374 44.7806L54.3647 42.8793L55.2935 42.8734L56.2778 44.7396V44.7806H55.3374ZM59.9517 43.2601H58.8647V42.5746H59.9517C60.1196 42.5746 60.2563 42.5472 60.3618 42.4926C60.4673 42.4359 60.5444 42.3578 60.5933 42.2582C60.6421 42.1586 60.6665 42.0463 60.6665 41.9213C60.6665 41.7943 60.6421 41.6761 60.5933 41.5668C60.5444 41.4574 60.4673 41.3695 60.3618 41.3031C60.2563 41.2367 60.1196 41.2035 59.9517 41.2035H59.1694V44.7806H58.2905V40.515H59.9517C60.2856 40.515 60.5718 40.5756 60.8101 40.6967C61.0503 40.8158 61.2339 40.9808 61.3608 41.1918C61.4878 41.4027 61.5513 41.6439 61.5513 41.9154C61.5513 42.1908 61.4878 42.4291 61.3608 42.6302C61.2339 42.8314 61.0503 42.9867 60.8101 43.0961C60.5718 43.2054 60.2856 43.2601 59.9517 43.2601ZM65.02 44.0951V44.7806H62.7495V44.0951H65.02ZM63.0366 40.515V44.7806H62.1577V40.515H63.0366ZM64.7241 42.2523V42.9203H62.7495V42.2523H64.7241ZM65.0171 40.515V41.2035H62.7495V40.515H65.0171ZM67.4985 40.515V44.7806H66.6226V40.515H67.4985ZM68.811 40.515V41.2035H65.3306V40.515H68.811ZM72.1743 44.0951V44.7806H69.9038V44.0951H72.1743ZM70.1909 40.515V44.7806H69.312V40.515H70.1909ZM71.8784 42.2523V42.9203H69.9038V42.2523H71.8784ZM72.1714 40.515V41.2035H69.9038V40.515H72.1714ZM72.687 40.515H74.2778C74.604 40.515 74.8843 40.5638 75.1187 40.6615C75.355 40.7592 75.5366 40.9037 75.6636 41.0951C75.7905 41.2865 75.854 41.5219 75.854 41.8011C75.854 42.0297 75.8149 42.226 75.7368 42.39C75.6606 42.5521 75.5522 42.6879 75.4116 42.7972C75.2729 42.9047 75.1099 42.9906 74.9224 43.0551L74.644 43.2015H73.2612L73.2554 42.516H74.2837C74.438 42.516 74.5659 42.4886 74.6675 42.434C74.769 42.3793 74.8452 42.3031 74.896 42.2054C74.9487 42.1078 74.9751 41.9945 74.9751 41.8656C74.9751 41.7289 74.9497 41.6107 74.8989 41.5111C74.8481 41.4115 74.771 41.3353 74.6675 41.2826C74.564 41.2299 74.4341 41.2035 74.2778 41.2035H73.5659V44.7806H72.687V40.515ZM75.0718 44.7806L74.0991 42.8793L75.0278 42.8734L76.0122 44.7396V44.7806H75.0718ZM78.7515 43.6644C78.7515 43.5883 78.7397 43.5199 78.7163 43.4594C78.6948 43.3969 78.6538 43.3402 78.5933 43.2894C78.5327 43.2367 78.4478 43.1849 78.3384 43.1342C78.229 43.0834 78.0874 43.0306 77.9136 42.976C77.7202 42.9135 77.5366 42.8431 77.3628 42.765C77.1909 42.6869 77.0386 42.5961 76.9058 42.4926C76.7749 42.3871 76.6714 42.265 76.5952 42.1263C76.521 41.9877 76.4839 41.8265 76.4839 41.6429C76.4839 41.4652 76.5229 41.3041 76.6011 41.1595C76.6792 41.0131 76.7886 40.8881 76.9292 40.7845C77.0698 40.6791 77.2358 40.598 77.4272 40.5414C77.6206 40.4847 77.8325 40.4564 78.063 40.4564C78.3774 40.4564 78.6519 40.5131 78.8862 40.6263C79.1206 40.7396 79.3022 40.8949 79.4312 41.0922C79.562 41.2894 79.6274 41.515 79.6274 41.7689H78.7544C78.7544 41.6439 78.728 41.5345 78.6753 41.4408C78.6245 41.3451 78.5464 41.2699 78.4409 41.2152C78.3374 41.1605 78.2065 41.1332 78.0483 41.1332C77.896 41.1332 77.769 41.1566 77.6675 41.2035C77.5659 41.2484 77.4897 41.3099 77.439 41.3881C77.3882 41.4642 77.3628 41.5502 77.3628 41.6459C77.3628 41.7181 77.3804 41.7836 77.4155 41.8422C77.4526 41.9008 77.5073 41.9554 77.5796 42.0062C77.6519 42.057 77.7407 42.1049 77.8462 42.1498C77.9517 42.1947 78.0737 42.2386 78.2124 42.2816C78.4448 42.3519 78.6489 42.431 78.8247 42.5189C79.0024 42.6068 79.1509 42.7054 79.27 42.8148C79.3892 42.9242 79.479 43.0482 79.5396 43.1869C79.6001 43.3256 79.6304 43.4828 79.6304 43.6586C79.6304 43.8441 79.5942 44.0101 79.522 44.1566C79.4497 44.3031 79.3452 44.4271 79.2085 44.5287C79.0718 44.6302 78.9087 44.7074 78.7192 44.7601C78.5298 44.8129 78.3179 44.8392 78.0835 44.8392C77.8726 44.8392 77.6646 44.8119 77.4595 44.7572C77.2544 44.7006 77.0679 44.6156 76.8999 44.5023C76.7339 44.389 76.6011 44.2445 76.5015 44.0687C76.4019 43.8929 76.3521 43.6849 76.3521 43.4447H77.2339C77.2339 43.5775 77.2544 43.6898 77.2954 43.7816C77.3364 43.8734 77.394 43.9476 77.4683 44.0043C77.5444 44.0609 77.6343 44.1019 77.7378 44.1273C77.8433 44.1527 77.9585 44.1654 78.0835 44.1654C78.2358 44.1654 78.3608 44.1439 78.4585 44.101C78.5581 44.058 78.6313 43.9984 78.6782 43.9222C78.7271 43.8461 78.7515 43.7601 78.7515 43.6644Z"/>
    </symbol>
    <symbol id="customer5" viewBox="0 0 104 56">
      <path d="M26.7919 44.373C27.0374 44.6465 27.1681 44.9891 27.1613 45.3407C27.1738 45.57 27.1288 45.7989 27.0298 46.0105C26.9307 46.2221 26.78 46.4109 26.5889 46.563C26.112 46.8872 25.5213 47.0457 24.925 47.0093H22V40.8769H24.8651C25.4307 40.8431 25.9918 40.9871 26.4525 41.2844C26.6375 41.4238 26.784 41.6 26.8805 41.7991C26.9769 41.9982 27.0206 42.2148 27.0082 42.4317C27.025 42.77 26.907 43.1026 26.6754 43.3694C26.4531 43.6131 26.1459 43.782 25.8036 43.8488C26.1916 43.9125 26.5419 44.0983 26.7919 44.373ZM23.361 43.4473H24.5856C24.8639 43.4659 25.1404 43.3935 25.3643 43.2436C25.4562 43.1686 25.5278 43.0755 25.5734 42.9716C25.619 42.8677 25.6374 42.7558 25.6272 42.6445C25.6358 42.5335 25.617 42.4222 25.5722 42.3186C25.5273 42.215 25.4574 42.1217 25.3676 42.0453C25.137 41.8911 24.852 41.8177 24.5657 41.8386H23.361V43.4473ZM25.4841 45.799C25.5824 45.7222 25.6596 45.6261 25.7099 45.518C25.7601 45.4099 25.7819 45.2928 25.7736 45.1759C25.7811 45.0576 25.7583 44.9394 25.7069 44.8303C25.6556 44.7212 25.5771 44.6242 25.4774 44.5468C25.2379 44.3869 24.9432 44.3084 24.6455 44.3251H23.361V46.0117H24.6622C24.955 46.0269 25.2449 45.9519 25.4841 45.799Z"/>
      <path d="M32.6487 47.0093L31.0547 44.6127H30.4557V47.0093H29.0847V40.8769H31.6803C32.3346 40.8358 32.9814 41.0224 33.4873 41.3982C33.8501 41.731 34.0689 42.1696 34.1043 42.6348C34.1397 43.1001 33.9893 43.5614 33.6803 43.9357C33.36 44.2659 32.9226 44.4861 32.4424 44.5588L34.1395 47.0093H32.6487ZM30.4557 43.7769H31.5772C32.3558 43.7769 32.7452 43.4673 32.7452 42.8482C32.7531 42.7217 32.7318 42.5952 32.6825 42.4766C32.6333 42.358 32.5571 42.2499 32.459 42.1591C32.2129 41.9749 31.896 41.8855 31.5772 41.9105H30.4424L30.4557 43.7769Z"/>
      <path d="M40.1426 45.7752H37.4106L36.928 47.0094H35.4905L37.9996 40.9459H39.5536L42.0527 47.0094H40.6151L40.1426 45.7752ZM39.7766 44.8465L38.7782 42.2581L37.7799 44.8465H39.7766Z"/>
      <path d="M49.5234 47.0094H48.1624L45.1109 42.8392V47.0094H43.7532V40.877H45.1109L48.1624 45.0711V40.877H49.5234V47.0094Z"/>
      <path d="M57.2903 45.5415C57.0089 46.0045 56.5801 46.3811 56.059 46.6229C55.4666 46.8923 54.8091 47.0251 54.1456 47.0094H51.723V40.877H54.1456C54.8079 40.8614 55.4646 40.991 56.059 41.2545C56.58 41.4908 57.0092 41.8637 57.2903 42.324C57.5704 42.8227 57.7164 43.3738 57.7164 43.9327C57.7164 44.4916 57.5704 45.0427 57.2903 45.5415ZM55.7329 45.3947C56.1213 44.9873 56.3349 44.4681 56.3349 43.9312C56.3349 43.3943 56.1213 42.8752 55.7329 42.4678C55.2634 42.0988 54.6511 41.9114 54.0291 41.9465H53.0841V45.9159H54.0291C54.6511 45.951 55.2634 45.7637 55.7329 45.3947Z"/>
      <path d="M40.9945 6.76672C40.9945 6.76672 58.5615 12.7374 58.1887 21.3773V35.9908C58.1887 35.9908 40.6351 30.0172 41.0012 21.3773L40.9945 6.76672Z"/>
      <path d="M73.8389 32.5694C77.1565 30.5139 80.9941 29.2408 85 28.8666V24.292C80.3842 25.8935 76.4686 28.7975 73.8389 32.5694Z"/>
      <path d="M71.8456 33.9478C74.5611 29.0253 79.2686 25.2268 85 23.3336V10.1521C85 10.1521 59.9823 18.6572 60.5114 30.9609V51.7668C60.5114 51.7668 61.6262 51.3863 63.3799 50.6733C63.3799 50.0083 63.3799 49.3372 63.4598 48.6631C63.9776 42.9511 66.9939 37.6581 71.8456 33.9478Z"/>
      <path d="M69.4663 41.6769C69.5978 40.234 69.891 38.8067 70.3415 37.4169C67.3205 40.6211 65.491 44.5971 65.1104 48.7859C65.0738 49.1814 65.0538 49.5768 65.0438 49.9843C66.4648 49.3701 68.1186 48.6032 69.8557 47.7015C69.4124 45.7197 69.2813 43.6916 69.4663 41.6769Z"/>
      <path d="M70.4612 41.7519C70.2947 43.5746 70.3988 45.4092 70.7707 47.2072C77.6058 43.5254 85.2861 37.8363 84.99 30.961V30.3618C80.1066 30.8537 75.5377 32.7756 71.9853 35.8321C71.1536 37.7263 70.6399 39.7214 70.4612 41.7519Z"/>
    </symbol>
    <symbol id="customer6" viewBox="0 0 104 56">
      <path d="M53.5294 27.4433C53.0853 26.8524 52.8729 26.1542 52.9233 25.4513V22.5632C52.9233 21.6779 53.1242 21.0051 53.5259 20.5448C53.9277 20.0845 54.6177 19.8554 55.596 19.8573C56.5153 19.8573 57.1679 20.0532 57.5537 20.4449C57.9746 20.9447 58.1794 21.556 58.1325 22.1725V22.8512H56.4881V22.1637C56.4939 21.9386 56.478 21.7136 56.4404 21.4909C56.4168 21.3386 56.3339 21.1977 56.2055 21.0913C56.0366 20.9766 55.8239 20.921 55.6096 20.9356C55.3844 20.9211 55.1609 20.9797 54.9832 21.1001C54.84 21.218 54.7445 21.3725 54.7108 21.5408C54.6636 21.7765 54.642 22.0155 54.6461 22.2547V25.7598C54.6202 26.0979 54.6927 26.4363 54.8572 26.744C54.939 26.8482 55.0526 26.9307 55.1854 26.9826C55.3182 27.0344 55.465 27.0536 55.6096 27.0378C55.8203 27.0528 56.0294 26.9958 56.1919 26.8792C56.3258 26.7644 56.412 26.6147 56.437 26.4532C56.4754 26.2206 56.4925 25.9858 56.4881 25.751V25.04H58.1325V25.6893C58.1787 26.3319 57.9789 26.9699 57.564 27.505C57.186 27.9339 56.5425 28.1484 55.596 28.1484C54.6495 28.1484 53.9345 27.9193 53.5294 27.4433Z"/>
      <path d="M60.3764 27.4727C59.961 27.0232 59.7533 26.368 59.7533 25.5013V22.4633C59.7533 21.6054 59.961 20.9561 60.3764 20.5154C60.7917 20.0747 61.4863 19.8554 62.46 19.8573C63.4269 19.8573 64.1181 20.0767 64.5334 20.5154C64.9488 20.9561 65.1599 21.6054 65.1599 22.4633V25.5013C65.1599 26.3592 64.9488 27.0173 64.5266 27.4697C64.1045 27.9222 63.4167 28.1484 62.46 28.1484C61.5033 28.1484 60.7951 27.9193 60.3764 27.4727ZM63.2261 26.744C63.3748 26.4625 63.4426 26.154 63.4235 25.845V22.1255C63.4426 21.8224 63.376 21.5199 63.2295 21.2441C63.146 21.1377 63.0297 21.0538 62.8936 21.0019C62.7575 20.9499 62.6073 20.932 62.46 20.9503C62.3123 20.9325 62.1617 20.9506 62.0252 21.0025C61.8887 21.0544 61.7717 21.138 61.6872 21.2441C61.5374 21.5191 61.4696 21.8221 61.4897 22.1255V25.8626C61.469 26.1718 61.5368 26.4805 61.6872 26.7617C61.783 26.8564 61.9013 26.9324 62.034 26.9845C62.1667 27.0365 62.3108 27.0634 62.4566 27.0634C62.6024 27.0634 62.7465 27.0365 62.8792 26.9845C63.0119 26.9324 63.1302 26.8564 63.2261 26.7617V26.744Z"/>
      <path d="M67.1378 19.946H68.9083L70.2395 25.5512L71.6014 19.946H73.3242L73.4978 28.0365H72.2245L72.0883 22.4137L70.7741 28.0365H69.7526L68.3908 22.3931L68.2648 28.0365H66.9778L67.1378 19.946Z"/>
      <path d="M75.4829 19.946H78.2407C79.8295 19.946 80.6239 20.7118 80.6239 22.2433C80.6239 23.7102 79.7875 24.4427 78.1147 24.4407H77.175V28.0365H75.4727L75.4829 19.946ZM77.8389 23.4037C78.0071 23.4221 78.1779 23.4088 78.3396 23.3647C78.5012 23.3206 78.6499 23.2467 78.7752 23.1481C78.9704 22.8749 79.0565 22.554 79.0203 22.2345C79.0292 21.9877 79.0018 21.7409 78.9386 21.5001C78.9143 21.4196 78.8717 21.3442 78.8133 21.2781C78.7548 21.212 78.6817 21.1567 78.5981 21.1152C78.3618 21.0174 78.1006 20.973 77.8389 20.986H77.1784V23.4037H77.8389Z"/>
      <path d="M83.0787 19.946H84.907L86.783 28.0365H85.1964L84.8253 26.171H83.1945L82.8132 28.0365H81.2028L83.0787 19.946ZM84.6415 25.2339L84.0048 21.8379L83.3681 25.2339H84.6415Z"/>
      <path d="M88.2981 19.946H89.4897L91.7709 24.5612V19.946H93.1839V28.0365H92.0501L89.7553 23.2186V28.0365H88.2947L88.2981 19.946Z"/>
      <path d="M96.4932 24.9516L94.5968 19.9573H96.1936L97.3512 23.1654L98.4373 19.9573H100L98.1275 24.9516V28.0363H96.4932V24.9516Z"/>
      <path d="M56.1579 31.5736V31.9967H54.7688V35.2842H54.1866V31.9967H52.7907V31.5736H56.1579Z"/>
      <path d="M60.5124 35.2844H60.0629C60.0173 35.2869 59.9723 35.2743 59.937 35.2492C59.903 35.2277 59.8769 35.1981 59.8621 35.164L59.4603 34.2827H57.5332L57.1315 35.164C57.12 35.2009 57.0991 35.235 57.0702 35.2639C57.0346 35.2885 56.9898 35.301 56.9442 35.2991H56.4948L58.1971 31.5887H58.7896L60.5124 35.2844ZM57.6932 33.9066H59.3003L58.6193 32.3966C58.5691 32.2824 58.527 32.1657 58.4933 32.047C58.4695 32.1175 58.4491 32.1851 58.4287 32.2439L58.3674 32.3996L57.6932 33.9066Z"/>
      <path d="M63.4472 34.9202C63.5538 34.925 63.6606 34.925 63.7673 34.9202C63.8593 34.912 63.9504 34.8972 64.0396 34.8761C64.123 34.8584 64.205 34.8359 64.2848 34.8085C64.3597 34.7821 64.4346 34.7498 64.5129 34.7174V33.883H63.8319C63.8151 33.8838 63.7983 33.8816 63.7824 33.8766C63.7666 33.8715 63.7522 33.8637 63.74 33.8536C63.7288 33.8453 63.72 33.8349 63.7141 33.8232C63.7082 33.8115 63.7054 33.7988 63.706 33.786V33.501H65.027V34.9231C64.9192 34.9897 64.8053 35.0486 64.6865 35.0994C64.5651 35.1511 64.4387 35.1934 64.3086 35.2257C64.1694 35.2611 64.027 35.2866 63.883 35.3021C63.718 35.3179 63.552 35.3258 63.3859 35.3256C63.0923 35.3278 62.801 35.2809 62.5279 35.1875C62.2731 35.0991 62.0415 34.9672 61.847 34.7997C61.6575 34.6305 61.5082 34.4309 61.4078 34.2121C61.3005 33.9661 61.2474 33.705 61.2512 33.4423C61.2476 33.1778 61.2995 32.9151 61.4044 32.6666C61.5023 32.4467 61.6519 32.2466 61.8436 32.079C62.0379 31.912 62.2696 31.7811 62.5245 31.6941C62.8161 31.5994 63.1255 31.5526 63.437 31.556C63.5955 31.5558 63.7538 31.5666 63.9103 31.5883C64.0486 31.6077 64.1844 31.6392 64.3154 31.6823C64.4345 31.7209 64.5486 31.7701 64.6559 31.8292C64.7602 31.8872 64.8593 31.952 64.9521 32.0231L64.7887 32.2523C64.7759 32.2732 64.7568 32.2908 64.7334 32.3032C64.7101 32.3156 64.6833 32.3224 64.6559 32.3228C64.6182 32.3218 64.5816 32.3116 64.5503 32.2934C64.4993 32.2699 64.4448 32.2406 64.3835 32.2053C64.3111 32.1661 64.2348 32.1327 64.1554 32.1054C64.0539 32.0703 63.9491 32.0427 63.8422 32.0231C63.6996 32.0005 63.5548 31.9896 63.4098 31.9908C63.1851 31.9887 62.9621 32.0236 62.7527 32.0936C62.5632 32.1592 62.3924 32.2595 62.2522 32.3875C62.1111 32.5209 62.0033 32.6779 61.9355 32.8488C61.7834 33.2506 61.7834 33.6838 61.9355 34.0857C62.01 34.2602 62.126 34.4194 62.276 34.5529C62.4156 34.6802 62.5851 34.7804 62.7731 34.8467C62.9896 34.9108 63.219 34.9359 63.4472 34.9202Z"/>
      <path d="M68.8744 34.8611H70.7334V35.2842H68.3058V31.5736H68.888L68.8744 34.8611Z"/>
      <path d="M72.6672 35.2842H72.085V31.5736H72.6672V35.2842Z"/>
      <path d="M74.8326 31.5913C74.8671 31.6083 74.8973 31.6313 74.9211 31.6589L77.4099 34.4559C77.4065 34.4119 77.4065 34.3677 77.4099 34.3237C77.4099 34.2826 77.4099 34.2414 77.4099 34.2032V31.559H77.9171V35.2845H77.6244C77.581 35.2875 77.5375 35.2804 77.4984 35.2639C77.463 35.2454 77.4319 35.2215 77.4065 35.1934L74.9211 32.3993C74.9211 32.4433 74.9211 32.4845 74.9211 32.5256C74.9211 32.5667 74.9211 32.6049 74.9211 32.6402V35.2845H74.4342V31.5737H74.7372C74.7701 31.5737 74.8026 31.5797 74.8326 31.5913Z"/>
      <path d="M82.2037 31.5736V31.982H80.1405V33.2071H81.8122V33.6008H80.1405V34.8671H82.2037V35.2754H79.5413V31.5736H82.2037Z"/>
      <path d="M21.1952 8.65871L47.047 14.9927V37.1883L21.1952 30.8572V8.65871ZM19.5371 6.76672V31.9354L48.7017 39.0832V13.9175L19.5371 6.76672Z"/>
      <path d="M35.168 50.7667L6.00002 43.6129V18.4469L35.168 25.5977V50.7667Z"/>
      <path d="M20.0205 8.37371L45.5352 14.6283L34.6845 23.9941L9.16637 17.7365L20.0205 8.37371ZM19.537 6.76672L6.00002 18.4475L35.168 25.5981L48.7016 13.9174L19.537 6.76672Z"/>
      <path d="M36.8091 49.3509L48.7016 39.0863L36.8091 36.1691V49.3509Z"/></symbol>
    <symbol id="name" viewBox="0 0 18 24">
      <path d="M9 12c1.6575 0 3-1.3425 3-3s-1.3425-3-3-3-3 1.3425-3 3 1.3425 3 3 3Zm0 1.5c-2.0025 0-6 1.005-6 3v.75c0 .4125.3375.75.75.75h10.5c.4125 0 .75-.3375.75-.75v-.75c0-1.995-3.9975-3-6-3Z"/>
    </symbol>
    <symbol id="phone" viewBox="0 0 18 24">
      <path d="m14.7263 13.8651-1.8382-.2099c-.4414-.0506-.8756.1014-1.1868.4125l-1.3316 1.3316c-2.048-1.0421-3.72694-2.7138-4.76903-4.769l1.3388-1.33886c.31118-.31119.46316-.74539.4125-1.18684L7.1421 6.28092C7.05526 5.55 6.44013 5 5.70198 5H4.45002c-.81776 0-1.49802.68026-1.44736 1.49802C3.38621 12.6783 8.32894 17.6138 14.5019 17.9973c.8178.0507 1.498-.6296 1.498-1.4473v-1.252c.0073-.7309-.5427-1.346-1.2736-1.4329Z"/>
    </symbol>
    <symbol id="email" viewBox="0 0 18 24">
      <path d="M15 6H3c-.825 0-1.4925.675-1.4925 1.5l-.0075 9c0 .825.675 1.5 1.5 1.5h12c.825 0 1.5-.675 1.5-1.5v-9c0-.825-.675-1.5-1.5-1.5Zm-.3 3.1875-5.3025 3.315c-.24.15-.555.15-.795 0L3.3 9.1875c-.1875-.12-.3-.3225-.3-.54 0-.5025.5475-.8025.975-.54L9 11.25l5.025-3.1425c.4275-.2625.975.0375.975.54 0 .2175-.1125.42-.3.54Z"/>
    </symbol>
    <symbol id="close" viewBox="0 0 8 8">
      <path d="M8 0.805714L7.19429 0L4 3.19429L0.805714 0L0 0.805714L3.19429 4L0 7.19429L0.805714 8L4 4.80571L7.19429 8L8 7.19429L4.80571 4L8 0.805714Z"/>
    </symbol>
    <symbol id="check" viewBox="0 0 16 16">
      <path d="M11.4456 4.25506c.1728-.16541.4027-.25685.6413-.25503.2386.00181.4672.09674.6375.26475.1703.16802.269.39597.2753.63577.0063.23979-.0803.47268-.2415.6495L7.86357 11.7044c-.08417.0911-.18575.1642-.29867.215-.11292.0508-.23487.0781-.35854.0804-.12368.0023-.24655-.0205-.36126-.067-.11472-.0465-.21892-.1158-.30638-.2038L3.29283 8.46564c-.0904-.08468-.1629-.1868-.21318-.30027-.05029-.11346-.07733-.23595-.07951-.36015-.00218-.1242.02055-.24757.06682-.36274.04627-.11518.11515-.21981.20251-.30765.08737-.08783.19143-.15708.306-.2036.11456-.04652.23726-.06937.3608-.06718.12353.00219.24536.02938.35822.07993.11285.05056.21443.12345.29866.21433l2.56874 2.58136 4.26041-5.45748c.0076-.0095.0158-.01855.0245-.02713h-.0012Z"/>
    </symbol>
    <symbol id="subscribe" viewBox="0 0 24 24">
      <path d="M24 2 0 13.25l7.66994 2.3672L19.5 6.375l-8.9983 10.1163.0073.0023-.009-.0023V22l4.3013-4.1817L20.2501 19.5 24 2Z"/>
    </symbol>
  </defs>
</svg>
